<svg xmlns="http://www.w3.org/2000/svg" viewBox="0 0 486 632.06"><defs><style>.cls-1,.cls-12,.cls-33,.cls-4{fill:#fff;}.cls-2{fill:#d385b7;}.cls-3{fill:#6673b5;}.cls-33,.cls-4{font-size:15px;}.cls-12,.cls-33,.cls-4{font-family:MyriadPro-Regular, Myriad Pro;}.cls-5{letter-spacing:-0.01em;}.cls-6{letter-spacing:-0.04em;}.cls-7{letter-spacing:-0.02em;}.cls-8{letter-spacing:-0.01em;}.cls-9{letter-spacing:0.01em;}.cls-10{letter-spacing:-0.02em;}.cls-11{letter-spacing:-0.01em;}.cls-12{font-size:13px;}.cls-13{letter-spacing:-0.01em;}.cls-14{letter-spacing:-0.01em;}.cls-15{letter-spacing:-0.01em;}.cls-16{letter-spacing:-0.01em;}.cls-17{letter-spacing:0em;}.cls-18{letter-spacing:0em;}.cls-19{letter-spacing:-0.04em;}.cls-20{letter-spacing:-0.02em;}.cls-21{letter-spacing:-0.04em;}.cls-22{letter-spacing:-0.07em;}.cls-23{letter-spacing:0.01em;}.cls-24{letter-spacing:0em;}.cls-25{letter-spacing:0em;}.cls-26{letter-spacing:0em;}.cls-27{letter-spacing:-0.01em;}.cls-28{letter-spacing:-0.01em;}.cls-29{letter-spacing:-0.01em;}.cls-30{letter-spacing:0em;}.cls-31{letter-spacing:-0.01em;}.cls-32{letter-spacing:-0.07em;}.cls-33{letter-spacing:-0.04em;}.cls-34{letter-spacing:0.01em;}</style></defs><title>Asset 1</title><g id="Layer_2" data-name="Layer 2"><g id="Layer_1-2" data-name="Layer 1"><line class="cls-1" x1="243" y1="21.01" x2="243" y2="632.06"/><rect class="cls-1" x="121.5" y="30.56" width="243" height="31"/><rect class="cls-2" x="243" y="30.56" width="121.5" height="31"/><rect class="cls-3" x="121.5" y="30.56" width="121.5" height="31"/><text class="cls-4" transform="translate(208 51.56)"><tspan class="cls-5">T</tspan><tspan x="7.35" y="0">he</tspan><tspan class="cls-6" x="23.19" y="0"> </tspan><tspan class="cls-7" x="25.83" y="0">W</tspan><tspan x="38.28" y="0">i</tspan><tspan class="cls-8" x="41.79" y="0">t</tspan><tspan x="46.67" y="0">cher</tspan></text><text class="cls-4" transform="translate(85 12.56)"><tspan class="cls-9">M</tspan><tspan x="12.15" y="0">an</tspan></text><line class="cls-1" x1="407" y1="18.56" x2="79" y2="18.56"/><text class="cls-4" transform="translate(364.5 12.56)"><tspan class="cls-10">V</tspan><tspan class="cls-11" x="8.13" y="0">r</tspan><tspan x="12.89" y="0">ouw</tspan></text><rect class="cls-1" x="121.5" y="73.56" width="243" height="31"/><rect class="cls-2" x="243" y="73.56" width="121.5" height="31"/><rect class="cls-3" x="121.5" y="73.56" width="121.5" height="31"/><text class="cls-12" transform="translate(132.5 94.06)"><tspan class="cls-13">T</tspan><tspan x="6.37" y="0">he </tspan><tspan class="cls-14" x="22.85" y="0">L</tspan><tspan x="28.81" y="0">egend of </tspan><tspan class="cls-15" x="80.09" y="0">Z</tspan><tspan x="87.13" y="0">elda: B</tspan><tspan class="cls-16" x="122.8" y="0">r</tspan><tspan x="126.92" y="0">e</tspan><tspan class="cls-17" x="133.43" y="0">a</tspan><tspan class="cls-18" x="139.64" y="0">th of the</tspan><tspan class="cls-19" x="185.64" y="0"> </tspan><tspan class="cls-20" x="187.92" y="0">W</tspan><tspan x="198.71" y="0">ild</tspan></text><rect class="cls-1" x="121.5" y="116.56" width="243" height="31"/><rect class="cls-2" x="243" y="116.56" width="121.5" height="31"/><rect class="cls-3" x="121.5" y="116.56" width="121.5" height="31"/><text class="cls-4" transform="translate(202 137.56)"><tspan class="cls-5">T</tspan><tspan x="7.35" y="0">he Last of </tspan><tspan class="cls-8" x="70.56" y="0">U</tspan><tspan x="80.17" y="0">s</tspan></text><rect class="cls-1" x="243" y="159.56" width="243" height="31"/><rect class="cls-2" x="243" y="159.56" width="243" height="31"/><text class="cls-4" transform="translate(285 180.56)">Shad<tspan class="cls-5" x="31.41" y="0">o</tspan><tspan x="39.54" y="0">w of</tspan><tspan class="cls-21" x="66.37" y="0"> </tspan><tspan class="cls-5" x="68.94" y="0">T</tspan><tspan x="76.29" y="0">he</tspan><tspan class="cls-21" x="92.13" y="0"> </tspan><tspan class="cls-22" x="94.69" y="0">T</tspan><tspan x="101.08" y="0">omb </tspan><tspan class="cls-23" x="133.54" y="0">R</tspan><tspan x="141.79" y="0">aider</tspan></text><rect class="cls-1" x="86.5" y="202.56" width="243" height="31"/><rect class="cls-2" x="208" y="202.56" width="121.5" height="31"/><rect class="cls-3" x="86.5" y="202.56" width="155.5" height="31"/><text class="cls-4" transform="translate(132.5 223.56)"><tspan class="cls-24">R</tspan><tspan x="8.13" y="0">ed </tspan><tspan class="cls-24" x="27.28" y="0">D</tspan><tspan class="cls-25" x="37.33" y="0">ead </tspan><tspan class="cls-24" x="63.72" y="0">R</tspan><tspan x="71.85" y="0">edemption</tspan></text><rect class="cls-2" x="242.5" y="245.56" width="243" height="31"/><text class="cls-4" transform="translate(314 265.46)"><tspan class="cls-8">A</tspan><tspan class="cls-25" x="9.09" y="0">ssassins </tspan><tspan class="cls-26" x="61.03" y="0">C</tspan><tspan class="cls-27" x="69.69" y="0">r</tspan><tspan x="74.44" y="0">eed 3</tspan></text><rect class="cls-3" y="288.56" width="243" height="31"/><text class="cls-4" transform="translate(85 308.46)">Just <tspan class="cls-5" x="27.9" y="0">C</tspan><tspan class="cls-25" x="36.49" y="0">ause 4</tspan></text><rect class="cls-3" y="331.56" width="243" height="31"/><text class="cls-4" transform="translate(63 351.46)">Ho<tspan class="cls-24" x="18.01" y="0">r</tspan><tspan x="22.98" y="0">i</tspan><tspan class="cls-28" x="26.49" y="0">z</tspan><tspan x="32.8" y="0">on </tspan><tspan class="cls-29" x="52.54" y="0">Z</tspan><tspan x="60.66" y="0">e</tspan><tspan class="cls-11" x="68.17" y="0">r</tspan><tspan class="cls-30" x="72.93" y="0">o D</tspan><tspan class="cls-31" x="94.33" y="0">a</tspan><tspan class="cls-30" x="101.44" y="0">wn</tspan></text><rect class="cls-3" y="374.56" width="243" height="31"/><text class="cls-4" transform="translate(113 394.46)">G<tspan class="cls-32" x="9.69" y="0">T</tspan><tspan class="cls-25" x="16.02" y="0">A</tspan></text><rect class="cls-3" y="417.56" width="243" height="31"/><text class="cls-33" transform="translate(109 437.46)">F<tspan class="cls-25" x="6.63" y="0">able</tspan></text><rect class="cls-3" y="460.56" width="243" height="31"/><text class="cls-4" transform="translate(91 480.46)">Da<tspan class="cls-24" x="17.22" y="0">r</tspan><tspan x="22.18" y="0">k </tspan><tspan class="cls-34" x="32.4" y="0">S</tspan><tspan x="39.88" y="0">ouls</tspan></text><rect class="cls-3" y="503.56" width="243" height="31"/><text class="cls-4" transform="translate(85 523.46)"><tspan class="cls-24">B</tspan><tspan x="8.19" y="0">ombe</tspan><tspan class="cls-24" x="44.98" y="0">r</tspan><tspan x="49.95" y="0">man</tspan></text><rect class="cls-3" y="546.56" width="243" height="31"/><text class="cls-4" transform="translate(85 566.46)">Bloodbo<tspan class="cls-24" x="53.37" y="0">r</tspan><tspan x="58.33" y="0">ne</tspan></text><rect class="cls-3" y="589.56" width="243" height="31"/><text class="cls-4" transform="translate(91 609.46)">Ballblast</text></g></g></svg>