<svg xmlns="http://www.w3.org/2000/svg" viewBox="0 0 407 241.5"><defs><style>.cls-1,.cls-2{fill:#fff;}.cls-2{font-size:15px;font-family:MyriadPro-Regular, Myriad Pro;}.cls-3{letter-spacing:0.01em;}.cls-4{letter-spacing:-0.02em;}.cls-5{letter-spacing:-0.01em;}.cls-6{fill:#6673b5;}.cls-7{letter-spacing:-0.03em;}.cls-8{letter-spacing:0em;}.cls-9{letter-spacing:-0.01em;}.cls-10{letter-spacing:-0.01em;}.cls-11{letter-spacing:-0.07em;}.cls-12{letter-spacing:0em;}.cls-13{letter-spacing:-0.03em;}.cls-14{letter-spacing:0.02em;}.cls-15{letter-spacing:-0.01em;}.cls-16{letter-spacing:0em;}.cls-17{letter-spacing:0.01em;}.cls-18{fill:#d385b7;}.cls-19{letter-spacing:0em;}.cls-20{letter-spacing:-0.01em;}</style></defs><title>Asset 5</title><g id="Layer_2" data-name="Layer 2"><g id="Layer_1-2" data-name="Layer 1"><line class="cls-1" x1="243" y1="21.01" x2="243" y2="241.5"/><text class="cls-2" transform="translate(85 12.56)"><tspan class="cls-3">M</tspan><tspan x="12.15" y="0">an</tspan></text><line class="cls-1" x1="407" y1="18.56" x2="79" y2="18.56"/><text class="cls-2" transform="translate(364.5 12.56)"><tspan class="cls-4">V</tspan><tspan class="cls-5" x="8.13" y="0">r</tspan><tspan x="12.89" y="0">ouw</tspan></text><rect class="cls-6" y="73.56" width="243" height="31"/><text class="cls-2" transform="translate(85 93.46)"><tspan class="cls-7">W</tspan><tspan class="cls-8" x="12.2" y="0">ol</tspan><tspan class="cls-9" x="23.97" y="0">f</tspan><tspan x="28.16" y="0">ens</tspan><tspan class="cls-10" x="49.93" y="0">t</tspan><tspan x="54.81" y="0">ein</tspan></text><rect class="cls-6" y="116.56" width="243" height="31"/><text class="cls-2" transform="translate(79 136.46)"><tspan class="cls-11">T</tspan><tspan class="cls-12" x="6.39" y="0">eam </tspan><tspan class="cls-13" x="36.82" y="0">F</tspan><tspan class="cls-8" x="43.67" y="0">o</tspan><tspan class="cls-14" x="51.9" y="0">r</tspan><tspan x="57.16" y="0">t</tspan><tspan class="cls-5" x="62.13" y="0">r</tspan><tspan x="66.88" y="0">ess 2</tspan></text><rect class="cls-6" y="159.56" width="243" height="31"/><text class="cls-2" transform="translate(85 180.56)"><tspan class="cls-15">C</tspan><tspan class="cls-12" x="8.59" y="0">all of </tspan><tspan class="cls-16" x="41.88" y="0">D</tspan><tspan x="51.91" y="0">u</tspan><tspan class="cls-17" x="60.18" y="0">t</tspan><tspan class="cls-12" x="65.28" y="0">y</tspan></text><rect class="cls-18" x="243" y="30.56" width="121.5" height="31"/><rect class="cls-6" x="121.5" y="30.56" width="121.5" height="31"/><text class="cls-2" transform="translate(225 51.56)">CSGO</text><rect class="cls-6" y="202.56" width="243" height="31"/><text class="cls-2" transform="translate(85 223.56)"><tspan class="cls-19">B</tspan><tspan x="8.19" y="0">o</tspan><tspan class="cls-20" x="16.42" y="0">r</tspan><tspan x="21.18" y="0">de</tspan><tspan class="cls-19" x="37.15" y="0">r</tspan><tspan x="42.12" y="0">lands</tspan></text></g></g></svg>