<svg xmlns="http://www.w3.org/2000/svg" viewBox="0 0 407 202.56"><defs><style>.cls-1,.cls-4{fill:#fff;}.cls-2{fill:#d385b7;}.cls-3{fill:#6673b5;}.cls-4{font-size:15px;font-family:MyriadPro-Regular, Myriad Pro;}.cls-5{letter-spacing:-0.08em;}.cls-6{letter-spacing:0.01em;}.cls-7{letter-spacing:-0.02em;}.cls-8{letter-spacing:-0.01em;}.cls-9{letter-spacing:0.02em;}.cls-10{letter-spacing:0em;}.cls-11{letter-spacing:-0.01em;}.cls-12{letter-spacing:0em;}.cls-13{letter-spacing:0em;}.cls-14{letter-spacing:-0.01em;}</style></defs><title>Asset 4</title><g id="Layer_2" data-name="Layer 2"><g id="Layer_1-2" data-name="Layer 1"><line class="cls-1" x1="243" y1="21.01" x2="243" y2="202.56"/><rect class="cls-2" x="164.25" y="30.56" width="121.5" height="31"/><rect class="cls-3" x="42.75" y="30.56" width="200.25" height="31"/><text class="cls-4" transform="translate(147.88 51.56)">FI<tspan class="cls-5" x="10.89" y="0">F</tspan><tspan x="17.03" y="0">A</tspan></text><text class="cls-4" transform="translate(85 12.56)"><tspan class="cls-6">M</tspan><tspan x="12.15" y="0">an</tspan></text><line class="cls-1" x1="407" y1="18.56" x2="79" y2="18.56"/><text class="cls-4" transform="translate(364.5 12.56)"><tspan class="cls-7">V</tspan><tspan class="cls-8" x="8.13" y="0">r</tspan><tspan x="12.89" y="0">ouw</tspan></text><rect class="cls-3" y="73.56" width="243" height="31"/><text class="cls-4" transform="translate(109 93.46)">S<tspan class="cls-9" x="7.39" y="0">k</tspan><tspan class="cls-10" x="14.7" y="0">a</tspan><tspan class="cls-11" x="21.87" y="0">t</tspan><tspan class="cls-12" x="26.74" y="0">e</tspan></text><rect class="cls-3" y="116.56" width="243" height="31"/><text class="cls-4" transform="translate(79 136.46)"><tspan class="cls-13">R</tspan><tspan x="8.13" y="0">ocket </tspan><tspan class="cls-14" x="45.78" y="0">L</tspan><tspan x="52.65" y="0">eague</tspan></text><rect class="cls-3" y="159.56" width="243" height="31"/><text class="cls-4" transform="translate(113 179.46)">NFS</text></g></g></svg>