<svg xmlns="http://www.w3.org/2000/svg" viewBox="0 0 486 156.55"><defs><style>.cls-1,.cls-17,.cls-2{fill:#fff;}.cls-17,.cls-2{font-size:15px;font-family:MyriadPro-Regular, Myriad Pro;}.cls-3{letter-spacing:0.01em;}.cls-4{letter-spacing:-0.02em;}.cls-5{letter-spacing:-0.01em;}.cls-6{fill:#6673b5;}.cls-7{letter-spacing:0.01em;}.cls-8{letter-spacing:0em;}.cls-9{letter-spacing:-0.01em;}.cls-10{letter-spacing:0em;}.cls-11{letter-spacing:-0.04em;}.cls-12{letter-spacing:-0.02em;}.cls-13{fill:#d385b7;}.cls-14{letter-spacing:-0.03em;}.cls-15{letter-spacing:-0.01em;}.cls-16{letter-spacing:0em;}.cls-17{letter-spacing:-0.02em;}.cls-18{letter-spacing:0em;}</style></defs><title>Asset 8</title><g id="Layer_2" data-name="Layer 2"><g id="Layer_1-2" data-name="Layer 1"><line class="cls-1" x1="243" y1="21.01" x2="243" y2="156.55"/><text class="cls-2" transform="translate(85 12.55)"><tspan class="cls-3">M</tspan><tspan x="12.15" y="0">an</tspan></text><line class="cls-1" x1="407" y1="18.55" x2="79" y2="18.55"/><text class="cls-2" transform="translate(364.5 12.56)"><tspan class="cls-4">V</tspan><tspan class="cls-5" x="8.13" y="0">r</tspan><tspan x="12.89" y="0">ouw</tspan></text><rect class="cls-6" y="72.61" width="243" height="31"/><text class="cls-2" transform="translate(49 92.51)"><tspan class="cls-7">R</tspan><tspan x="8.22" y="0">ising </tspan><tspan class="cls-8" x="41.07" y="0">S</tspan><tspan class="cls-9" x="48.42" y="0">t</tspan><tspan x="53.29" y="0">o</tspan><tspan class="cls-10" x="61.53" y="0">r</tspan><tspan x="66.49" y="0">m 2:</tspan><tspan class="cls-11" x="92.98" y="0"> </tspan><tspan class="cls-12" x="95.62" y="0">V</tspan><tspan x="103.75" y="0">ietnam</tspan></text><rect class="cls-13" x="243" y="30.55" width="243" height="31"/><text class="cls-2" transform="translate(332 51.55)"><tspan class="cls-14">F</tspan><tspan x="6.92" y="0">i</tspan><tspan class="cls-15" x="10.42" y="0">r</tspan><tspan class="cls-16" x="15.18" y="0">e Emblem</tspan></text><rect class="cls-6" y="114.66" width="243" height="31"/><text class="cls-17" transform="translate(90 134.57)">P<tspan class="cls-18" x="7.61" y="0">okémon</tspan></text></g></g></svg>